<mxfile host="app.diagrams.net" agent="Mozilla/5.0 (Windows NT 10.0; Win64; x64) AppleWebKit/537.36 (KHTML, like Gecko) Chrome/135.0.0.0 Safari/537.36 Edg/135.0.0.0" version="26.2.13">
  <diagram name="Страница — 1" id="YG926s4NfKqyxtvUQSTs">
    <mxGraphModel dx="2492" dy="1514" grid="1" gridSize="10" guides="1" tooltips="1" connect="1" arrows="1" fold="1" page="0" pageScale="1" pageWidth="827" pageHeight="1169" math="0" shadow="0">
      <root>
        <mxCell id="0" />
        <mxCell id="1" parent="0" />
        <mxCell id="iewf3tZWK7U-t7orlJh0-54" value="" style="endArrow=none;html=1;rounded=0;fontSize=12;startSize=8;endSize=8;edgeStyle=orthogonalEdgeStyle;entryX=0.5;entryY=1;entryDx=0;entryDy=0;exitX=0.5;exitY=0;exitDx=0;exitDy=0;" edge="1" parent="1" source="iewf3tZWK7U-t7orlJh0-52">
          <mxGeometry width="50" height="50" relative="1" as="geometry">
            <mxPoint x="-80" y="640" as="sourcePoint" />
            <mxPoint x="20" y="340" as="targetPoint" />
            <Array as="points">
              <mxPoint x="120" y="650" />
              <mxPoint x="20" y="650" />
              <mxPoint x="20" y="630" />
              <mxPoint x="-60" y="630" />
              <mxPoint x="-60" y="410" />
              <mxPoint x="20" y="410" />
            </Array>
          </mxGeometry>
        </mxCell>
        <mxCell id="iewf3tZWK7U-t7orlJh0-53" value="" style="endArrow=none;html=1;rounded=0;fontSize=12;startSize=8;endSize=8;edgeStyle=orthogonalEdgeStyle;entryX=0.5;entryY=1;entryDx=0;entryDy=0;exitX=0.5;exitY=0;exitDx=0;exitDy=0;" edge="1" parent="1" source="iewf3tZWK7U-t7orlJh0-25" target="iewf3tZWK7U-t7orlJh0-1">
          <mxGeometry width="50" height="50" relative="1" as="geometry">
            <mxPoint x="150" y="550" as="sourcePoint" />
            <mxPoint x="200" y="500" as="targetPoint" />
            <Array as="points">
              <mxPoint x="20" y="40" />
              <mxPoint x="120" y="40" />
            </Array>
          </mxGeometry>
        </mxCell>
        <mxCell id="iewf3tZWK7U-t7orlJh0-59" value="" style="endArrow=none;html=1;rounded=0;fontSize=12;startSize=8;endSize=8;edgeStyle=orthogonalEdgeStyle;entryX=1;entryY=0.5;entryDx=0;entryDy=0;" edge="1" parent="1" target="iewf3tZWK7U-t7orlJh0-9">
          <mxGeometry width="50" height="50" relative="1" as="geometry">
            <mxPoint x="120" y="650" as="sourcePoint" />
            <mxPoint x="150" y="-10" as="targetPoint" />
            <Array as="points">
              <mxPoint x="210" y="650" />
              <mxPoint x="210" y="40" />
            </Array>
          </mxGeometry>
        </mxCell>
        <mxCell id="iewf3tZWK7U-t7orlJh0-48" value="" style="endArrow=none;html=1;rounded=0;fontSize=12;startSize=8;endSize=8;entryX=1;entryY=0.5;entryDx=0;entryDy=0;edgeStyle=orthogonalEdgeStyle;" edge="1" parent="1" target="iewf3tZWK7U-t7orlJh0-8">
          <mxGeometry width="50" height="50" relative="1" as="geometry">
            <mxPoint x="-270" y="360" as="sourcePoint" />
            <mxPoint x="-170" y="190" as="targetPoint" />
            <Array as="points">
              <mxPoint x="-170" y="360" />
              <mxPoint x="-170" y="40" />
            </Array>
          </mxGeometry>
        </mxCell>
        <mxCell id="iewf3tZWK7U-t7orlJh0-42" value="" style="endArrow=none;html=1;rounded=0;fontSize=12;startSize=8;endSize=8;edgeStyle=orthogonalEdgeStyle;entryX=1;entryY=0.5;entryDx=0;entryDy=0;" edge="1" parent="1" source="iewf3tZWK7U-t7orlJh0-33" target="iewf3tZWK7U-t7orlJh0-30">
          <mxGeometry width="50" height="50" relative="1" as="geometry">
            <mxPoint x="-390" y="380" as="sourcePoint" />
            <mxPoint x="-350" y="260" as="targetPoint" />
            <Array as="points">
              <mxPoint x="-290" y="210" />
            </Array>
          </mxGeometry>
        </mxCell>
        <mxCell id="iewf3tZWK7U-t7orlJh0-38" value="" style="endArrow=none;html=1;rounded=0;fontSize=12;startSize=8;endSize=8;edgeStyle=orthogonalEdgeStyle;entryX=0.5;entryY=1;entryDx=0;entryDy=0;exitX=0.5;exitY=0;exitDx=0;exitDy=0;" edge="1" parent="1" source="iewf3tZWK7U-t7orlJh0-29" target="iewf3tZWK7U-t7orlJh0-26">
          <mxGeometry width="50" height="50" relative="1" as="geometry">
            <mxPoint x="-230" y="210" as="sourcePoint" />
            <mxPoint x="-180" y="160" as="targetPoint" />
            <Array as="points">
              <mxPoint x="-390" y="40" />
              <mxPoint x="-270" y="40" />
            </Array>
          </mxGeometry>
        </mxCell>
        <mxCell id="iewf3tZWK7U-t7orlJh0-40" value="" style="endArrow=none;html=1;rounded=0;fontSize=12;startSize=8;endSize=8;exitX=0.5;exitY=0;exitDx=0;exitDy=0;edgeStyle=orthogonalEdgeStyle;" edge="1" parent="1" source="iewf3tZWK7U-t7orlJh0-32">
          <mxGeometry width="50" height="50" relative="1" as="geometry">
            <mxPoint x="-440" y="190" as="sourcePoint" />
            <mxPoint x="-390" y="140" as="targetPoint" />
            <Array as="points">
              <mxPoint x="-490" y="210" />
              <mxPoint x="-389" y="210" />
              <mxPoint x="-389" y="140" />
            </Array>
          </mxGeometry>
        </mxCell>
        <mxCell id="iewf3tZWK7U-t7orlJh0-1" value="Начало" style="ellipse;whiteSpace=wrap;html=1;" vertex="1" parent="1">
          <mxGeometry x="60" y="-120" width="120" height="80" as="geometry" />
        </mxCell>
        <mxCell id="iewf3tZWK7U-t7orlJh0-3" value="Условие" style="rhombus;whiteSpace=wrap;html=1;" vertex="1" parent="1">
          <mxGeometry x="280" y="-120" width="120" height="80" as="geometry" />
        </mxCell>
        <mxCell id="iewf3tZWK7U-t7orlJh0-4" value="Вывод" style="shape=parallelogram;perimeter=parallelogramPerimeter;whiteSpace=wrap;html=1;fixedSize=1;" vertex="1" parent="1">
          <mxGeometry x="420" y="-110" width="120" height="60" as="geometry" />
        </mxCell>
        <mxCell id="iewf3tZWK7U-t7orlJh0-5" value="Действие" style="rounded=0;whiteSpace=wrap;html=1;" vertex="1" parent="1">
          <mxGeometry x="560" y="-110" width="120" height="60" as="geometry" />
        </mxCell>
        <mxCell id="iewf3tZWK7U-t7orlJh0-6" value="Процесс" style="shape=process;whiteSpace=wrap;html=1;backgroundOutline=1;" vertex="1" parent="1">
          <mxGeometry x="700" y="-110" width="120" height="60" as="geometry" />
        </mxCell>
        <mxCell id="iewf3tZWK7U-t7orlJh0-7" value="Условие" style="rhombus;whiteSpace=wrap;html=1;" vertex="1" parent="1">
          <mxGeometry x="290" y="-110" width="120" height="80" as="geometry" />
        </mxCell>
        <mxCell id="iewf3tZWK7U-t7orlJh0-8" value="Существует ли ключ?" style="rhombus;whiteSpace=wrap;html=1;" vertex="1" parent="1">
          <mxGeometry x="-330" width="120" height="80" as="geometry" />
        </mxCell>
        <mxCell id="iewf3tZWK7U-t7orlJh0-9" value="Вместимость&lt;div&gt;меньше 1&lt;/div&gt;" style="rhombus;whiteSpace=wrap;html=1;" vertex="1" parent="1">
          <mxGeometry x="60" width="120" height="80" as="geometry" />
        </mxCell>
        <mxCell id="iewf3tZWK7U-t7orlJh0-10" value="Вывод" style="shape=parallelogram;perimeter=parallelogramPerimeter;whiteSpace=wrap;html=1;fixedSize=1;" vertex="1" parent="1">
          <mxGeometry x="430" y="-100" width="120" height="60" as="geometry" />
        </mxCell>
        <mxCell id="iewf3tZWK7U-t7orlJh0-11" value="Вывод" style="shape=parallelogram;perimeter=parallelogramPerimeter;whiteSpace=wrap;html=1;fixedSize=1;" vertex="1" parent="1">
          <mxGeometry x="440" y="-90" width="120" height="60" as="geometry" />
        </mxCell>
        <mxCell id="iewf3tZWK7U-t7orlJh0-12" value="Вывод" style="shape=parallelogram;perimeter=parallelogramPerimeter;whiteSpace=wrap;html=1;fixedSize=1;" vertex="1" parent="1">
          <mxGeometry x="450" y="-80" width="120" height="60" as="geometry" />
        </mxCell>
        <mxCell id="iewf3tZWK7U-t7orlJh0-13" value="Действие" style="rounded=0;whiteSpace=wrap;html=1;" vertex="1" parent="1">
          <mxGeometry x="570" y="-100" width="120" height="60" as="geometry" />
        </mxCell>
        <mxCell id="iewf3tZWK7U-t7orlJh0-14" value="Действие" style="rounded=0;whiteSpace=wrap;html=1;" vertex="1" parent="1">
          <mxGeometry x="580" y="-90" width="120" height="60" as="geometry" />
        </mxCell>
        <mxCell id="iewf3tZWK7U-t7orlJh0-15" value="Действие" style="rounded=0;whiteSpace=wrap;html=1;" vertex="1" parent="1">
          <mxGeometry x="590" y="-80" width="120" height="60" as="geometry" />
        </mxCell>
        <mxCell id="iewf3tZWK7U-t7orlJh0-16" value="Устанавливаем начальное количество элементов" style="rounded=0;whiteSpace=wrap;html=1;" vertex="1" parent="1">
          <mxGeometry x="-40" y="170" width="120" height="60" as="geometry" />
        </mxCell>
        <mxCell id="iewf3tZWK7U-t7orlJh0-17" value="Создаем массив&lt;div&gt;- таблицу&lt;/div&gt;" style="rounded=0;whiteSpace=wrap;html=1;" vertex="1" parent="1">
          <mxGeometry x="-40" y="80" width="120" height="60" as="geometry" />
        </mxCell>
        <mxCell id="iewf3tZWK7U-t7orlJh0-18" value="Процесс" style="shape=process;whiteSpace=wrap;html=1;backgroundOutline=1;" vertex="1" parent="1">
          <mxGeometry x="710" y="-100" width="120" height="60" as="geometry" />
        </mxCell>
        <mxCell id="iewf3tZWK7U-t7orlJh0-19" value="Процесс" style="shape=process;whiteSpace=wrap;html=1;backgroundOutline=1;" vertex="1" parent="1">
          <mxGeometry x="720" y="-90" width="120" height="60" as="geometry" />
        </mxCell>
        <mxCell id="iewf3tZWK7U-t7orlJh0-21" value="" style="shape=partialRectangle;whiteSpace=wrap;html=1;bottom=1;right=1;left=1;top=0;fillColor=none;routingCenterX=-0.5;rotation=-90;" vertex="1" parent="1">
          <mxGeometry x="-17.5" y="-42.5" width="55" height="60" as="geometry" />
        </mxCell>
        <mxCell id="iewf3tZWK7U-t7orlJh0-23" value="Передаваемые параметры:&lt;div&gt;вместимость&lt;/div&gt;" style="text;html=1;align=center;verticalAlign=middle;whiteSpace=wrap;rounded=0;" vertex="1" parent="1">
          <mxGeometry x="-50" y="-40" width="90" height="50" as="geometry" />
        </mxCell>
        <mxCell id="iewf3tZWK7U-t7orlJh0-25" value="А" style="ellipse;whiteSpace=wrap;html=1;aspect=fixed;" vertex="1" parent="1">
          <mxGeometry x="-20" y="260" width="80" height="80" as="geometry" />
        </mxCell>
        <mxCell id="iewf3tZWK7U-t7orlJh0-26" value="А" style="ellipse;whiteSpace=wrap;html=1;aspect=fixed;" vertex="1" parent="1">
          <mxGeometry x="-310" y="-120" width="80" height="80" as="geometry" />
        </mxCell>
        <mxCell id="iewf3tZWK7U-t7orlJh0-27" value="" style="shape=partialRectangle;whiteSpace=wrap;html=1;bottom=1;right=1;left=1;top=0;fillColor=none;routingCenterX=-0.5;rotation=-90;" vertex="1" parent="1">
          <mxGeometry x="-367.5" y="-45" width="55" height="60" as="geometry" />
        </mxCell>
        <mxCell id="iewf3tZWK7U-t7orlJh0-28" value="Передаваемые параметры:&lt;div&gt;ключ и значение&lt;/div&gt;" style="text;html=1;align=center;verticalAlign=middle;whiteSpace=wrap;rounded=0;" vertex="1" parent="1">
          <mxGeometry x="-400" y="-42.5" width="90" height="50" as="geometry" />
        </mxCell>
        <mxCell id="iewf3tZWK7U-t7orlJh0-29" value="Вычисляем индекс" style="shape=process;whiteSpace=wrap;html=1;backgroundOutline=1;" vertex="1" parent="1">
          <mxGeometry x="-450" y="80" width="120" height="60" as="geometry" />
        </mxCell>
        <mxCell id="iewf3tZWK7U-t7orlJh0-30" value="Цепочка пуста?" style="rhombus;whiteSpace=wrap;html=1;" vertex="1" parent="1">
          <mxGeometry x="-450" y="170" width="120" height="80" as="geometry" />
        </mxCell>
        <mxCell id="iewf3tZWK7U-t7orlJh0-31" value="Увеличиваем счетчик элементов" style="rounded=0;whiteSpace=wrap;html=1;" vertex="1" parent="1">
          <mxGeometry x="-120" y="470" width="120" height="60" as="geometry" />
        </mxCell>
        <mxCell id="iewf3tZWK7U-t7orlJh0-32" value="Добавить элемент в цепочку" style="rounded=0;whiteSpace=wrap;html=1;" vertex="1" parent="1">
          <mxGeometry x="-550" y="250" width="120" height="60" as="geometry" />
        </mxCell>
        <mxCell id="iewf3tZWK7U-t7orlJh0-34" value="А" style="ellipse;whiteSpace=wrap;html=1;aspect=fixed;" vertex="1" parent="1">
          <mxGeometry x="-310" y="390" width="80" height="80" as="geometry" />
        </mxCell>
        <mxCell id="iewf3tZWK7U-t7orlJh0-44" value="" style="endArrow=none;html=1;rounded=0;fontSize=12;startSize=8;endSize=8;exitX=0.5;exitY=1;exitDx=0;exitDy=0;edgeStyle=orthogonalEdgeStyle;entryX=0.5;entryY=0;entryDx=0;entryDy=0;" edge="1" parent="1" source="iewf3tZWK7U-t7orlJh0-32" target="iewf3tZWK7U-t7orlJh0-34">
          <mxGeometry width="50" height="50" relative="1" as="geometry">
            <mxPoint x="-470" y="300" as="sourcePoint" />
            <mxPoint x="-370" y="160" as="targetPoint" />
            <Array as="points">
              <mxPoint x="-490" y="340" />
              <mxPoint x="-390" y="340" />
              <mxPoint x="-390" y="360" />
              <mxPoint x="-270" y="360" />
            </Array>
          </mxGeometry>
        </mxCell>
        <mxCell id="iewf3tZWK7U-t7orlJh0-45" value="" style="endArrow=none;html=1;rounded=0;fontSize=12;startSize=8;endSize=8;edgeStyle=orthogonalEdgeStyle;entryX=1;entryY=0.5;entryDx=0;entryDy=0;" edge="1" parent="1" target="iewf3tZWK7U-t7orlJh0-33">
          <mxGeometry width="50" height="50" relative="1" as="geometry">
            <mxPoint x="-390" y="360" as="sourcePoint" />
            <mxPoint x="-330" y="210" as="targetPoint" />
            <Array as="points">
              <mxPoint x="-390" y="340" />
              <mxPoint x="-290" y="340" />
              <mxPoint x="-290" y="280" />
            </Array>
          </mxGeometry>
        </mxCell>
        <mxCell id="iewf3tZWK7U-t7orlJh0-33" value="Создать новую цепочку" style="rounded=0;whiteSpace=wrap;html=1;" vertex="1" parent="1">
          <mxGeometry x="-350" y="250" width="120" height="60" as="geometry" />
        </mxCell>
        <mxCell id="iewf3tZWK7U-t7orlJh0-46" value="" style="endArrow=none;dashed=1;html=1;dashPattern=1 3;strokeWidth=2;rounded=0;fontSize=12;startSize=8;endSize=8;curved=1;exitX=1;exitY=0.5;exitDx=0;exitDy=0;" edge="1" parent="1" source="iewf3tZWK7U-t7orlJh0-28">
          <mxGeometry width="50" height="50" relative="1" as="geometry">
            <mxPoint x="-160" y="220" as="sourcePoint" />
            <mxPoint x="-270" y="-17" as="targetPoint" />
          </mxGeometry>
        </mxCell>
        <mxCell id="iewf3tZWK7U-t7orlJh0-47" value="Сообщение о том,&amp;nbsp;&lt;div&gt;что такой ключ уже существует&lt;/div&gt;" style="shape=parallelogram;perimeter=parallelogramPerimeter;whiteSpace=wrap;html=1;fixedSize=1;" vertex="1" parent="1">
          <mxGeometry x="-230" y="80" width="130" height="60" as="geometry" />
        </mxCell>
        <mxCell id="iewf3tZWK7U-t7orlJh0-49" value="Сообщение об успешности добавления" style="shape=parallelogram;perimeter=parallelogramPerimeter;whiteSpace=wrap;html=1;fixedSize=1;" vertex="1" parent="1">
          <mxGeometry x="-120" y="550" width="120" height="60" as="geometry" />
        </mxCell>
        <mxCell id="iewf3tZWK7U-t7orlJh0-50" value="Вместимость должна быть больше 0" style="shape=parallelogram;perimeter=parallelogramPerimeter;whiteSpace=wrap;html=1;fixedSize=1;" vertex="1" parent="1">
          <mxGeometry x="150" y="80" width="120" height="60" as="geometry" />
        </mxCell>
        <mxCell id="iewf3tZWK7U-t7orlJh0-51" value="Добавление&amp;nbsp;&lt;div&gt;прошло&amp;nbsp;&lt;/div&gt;&lt;div&gt;успешно?&lt;/div&gt;" style="rhombus;whiteSpace=wrap;html=1;" vertex="1" parent="1">
          <mxGeometry x="-40" y="370" width="120" height="80" as="geometry" />
        </mxCell>
        <mxCell id="iewf3tZWK7U-t7orlJh0-52" value="Конец" style="ellipse;whiteSpace=wrap;html=1;" vertex="1" parent="1">
          <mxGeometry x="60" y="660" width="120" height="80" as="geometry" />
        </mxCell>
        <mxCell id="iewf3tZWK7U-t7orlJh0-56" value="" style="endArrow=none;html=1;rounded=0;fontSize=12;startSize=8;endSize=8;edgeStyle=orthogonalEdgeStyle;entryX=1;entryY=0.5;entryDx=0;entryDy=0;" edge="1" parent="1" target="iewf3tZWK7U-t7orlJh0-51">
          <mxGeometry width="50" height="50" relative="1" as="geometry">
            <mxPoint x="120" y="660" as="sourcePoint" />
            <mxPoint x="140" y="-20" as="targetPoint" />
            <Array as="points">
              <mxPoint x="120" y="650" />
              <mxPoint x="20" y="650" />
              <mxPoint x="20" y="630" />
              <mxPoint x="100" y="630" />
              <mxPoint x="100" y="410" />
            </Array>
          </mxGeometry>
        </mxCell>
        <mxCell id="iewf3tZWK7U-t7orlJh0-60" value="Сообщение о том, что элемент не добавлен" style="shape=parallelogram;perimeter=parallelogramPerimeter;whiteSpace=wrap;html=1;fixedSize=1;" vertex="1" parent="1">
          <mxGeometry x="40" y="470" width="120" height="60" as="geometry" />
        </mxCell>
        <mxCell id="iewf3tZWK7U-t7orlJh0-61" value="" style="endArrow=none;dashed=1;html=1;dashPattern=1 3;strokeWidth=2;rounded=0;fontSize=12;startSize=8;endSize=8;curved=1;" edge="1" parent="1">
          <mxGeometry width="50" height="50" relative="1" as="geometry">
            <mxPoint x="40" y="-10" as="sourcePoint" />
            <mxPoint x="120" y="-10" as="targetPoint" />
          </mxGeometry>
        </mxCell>
      </root>
    </mxGraphModel>
  </diagram>
</mxfile>
